<?xml version="1.0" encoding="iso-8859-1"?>
<!-- Generator: Adobe Illustrator 19.0.0, SVG Export Plug-In . SVG Version: 6.00 Build 0)  -->
<svg version="1.1" id="Layer_1" xmlns="http://www.w3.org/2000/svg" xmlns:xlink="http://www.w3.org/1999/xlink" x="0px" y="0px"
	 viewBox="0 0 512 512" style="enable-background:new 0 0 512 512;" xml:space="preserve">
<g>
	<path style="fill:#573A32;" d="M499.2,403.2H12.8C5.726,403.2,0,408.926,0,416s5.726,12.8,12.8,12.8h486.4
		c7.074,0,12.8-5.726,12.8-12.8S506.274,403.2,499.2,403.2z"/>
	<path style="fill:#573A32;" d="M25.6,339.2c3.277,0,6.554-1.246,9.054-3.746L128,242.099l93.346,93.346
		c4.813,4.821,12.553,4.975,17.613,0.478L473.6,124.749V172.8c0,7.074,5.726,12.8,12.8,12.8s12.8-5.726,12.8-12.8V96
		c0-7.074-5.726-12.8-12.8-12.8h-76.8c-7.074,0-12.8,5.726-12.8,12.8c0,7.074,5.726,12.8,12.8,12.8h43.435L230.861,308.753
		l-93.807-93.807c-5.001-5.001-13.099-5.001-18.099,0l-102.4,102.4c-5.001,5.001-5.001,13.099,0,18.099
		C19.046,337.954,22.323,339.2,25.6,339.2z"/>
</g>
<g>
</g>
<g>
</g>
<g>
</g>
<g>
</g>
<g>
</g>
<g>
</g>
<g>
</g>
<g>
</g>
<g>
</g>
<g>
</g>
<g>
</g>
<g>
</g>
<g>
</g>
<g>
</g>
<g>
</g>
</svg>
